<svg id="Layer_1" data-name="Layer 1" xmlns="http://www.w3.org/2000/svg" viewBox="0 0 589.11 176.87"><defs><style>.cls-1,.cls-2{fill:#fff;}.cls-2{font-size:84.83px;font-family:Poppins-Bold, Poppins;font-weight:700;}</style></defs><g id="CUSTOM-Group"><path class="cls-1" d="M277.65,290.9l-24.34-28.61a53.28,53.28,0,0,0-3.23-49.63,3.51,3.51,0,0,0-4.79-1.16,3.43,3.43,0,0,0-1.64,2.54,86.92,86.92,0,0,1-64.74,63.9A94.81,94.81,0,0,0,134,302.85a93.65,93.65,0,0,0-24.74,43q-3.5,1.89-6.84,4.08a3.45,3.45,0,0,0-1,4.79,3.49,3.49,0,0,0,4.83,1,87.91,87.91,0,0,1,27.93-12,94.82,94.82,0,0,0,32-14.21,3.44,3.44,0,0,0,.87-4.81,3.51,3.51,0,0,0-4.85-.87A87.4,87.4,0,0,1,132.61,337a94.89,94.89,0,0,0-14.86,4.85,87,87,0,0,1,62.78-57.14,95.23,95.23,0,0,0,14.86-4.85,86.2,86.2,0,0,1-11.76,23,3.43,3.43,0,0,0,.82,4.82,3.49,3.49,0,0,0,4.85-.81,92.88,92.88,0,0,0,14.54-31.05A94,94,0,0,0,247.94,224a46.1,46.1,0,0,1-1.85,37.23,3.42,3.42,0,0,0,.44,3.79l25.69,30.19-10,6.5a3.44,3.44,0,0,0-1.07,4.67l3.83,6.31a6.05,6.05,0,0,1-2.89,8.75,3.48,3.48,0,0,0-2.09,2.62,3.44,3.44,0,0,0,1.12,3.15A5.65,5.65,0,0,1,260,336.5l-.21.11a3.47,3.47,0,0,0-1.88,3.07v11.57a11.11,11.11,0,0,1-11.15,11.05H226.31a46.69,46.69,0,0,0-25.17,7.34l-18.61,11.87a3.43,3.43,0,0,0-1.05,4.77,3.49,3.49,0,0,0,2.93,1.59,3.54,3.54,0,0,0,1.89-.55l18.61-11.87a39.69,39.69,0,0,1,21.4-6.24h20.44a18.06,18.06,0,0,0,18.12-18v-9.64a12.51,12.51,0,0,0,3.66-16.1A12.92,12.92,0,0,0,271,309.15l-2.11-3.47,7.3-4.76a6.75,6.75,0,0,0,1.47-10Z" transform="translate(-100.89 -211)"/><path class="cls-1" d="M102.67,277a3.51,3.51,0,0,0,4.74-1.32,62.69,62.69,0,0,0,6.44-16.28,56.25,56.25,0,0,1,42-41.61,3.45,3.45,0,0,0,2.58-4.16,3.48,3.48,0,0,0-4.2-2.55A63.72,63.72,0,0,0,124,227.86a63,63,0,0,0-16.91,30,55.72,55.72,0,0,1-5.73,14.49,3.44,3.44,0,0,0,1.33,4.71Z" transform="translate(-100.89 -211)"/><path class="cls-1" d="M176.31,313.2a3.53,3.53,0,0,0-2.46,1,3.48,3.48,0,0,0-1,2.45,3.44,3.44,0,0,0,1,2.44,3.51,3.51,0,0,0,2.46,1,3.46,3.46,0,1,0,0-6.91Z" transform="translate(-100.89 -211)"/></g><text class="cls-2" transform="translate(200.17 123.74)">SkinPath</text></svg>